Coordinates
version=1
nRows=29
nColumns=22
inDegrees=yes

Units are S.I. units (second, meters, Newtons, ...)
If the header above contains a line with 'inDegrees', this indicates whether rotational values are in degrees (yes) or radians (no).

endheader
time	pelvis_tilt	pelvis_list	pelvis_rotation	pelvis_tx	pelvis_ty	pelvis_tz	hip_flexion_r	hip_adduction_r	hip_rotation_r	knee_angle_r	ankle_angle_r	subtalar_angle_r	hip_flexion_l	hip_adduction_l	hip_rotation_l	knee_angle_l	ankle_angle_l	subtalar_angle_l	lumbar_extension	lumbar_bending	lumbar_rotation
      2.16000000	     -2.18531685	     -0.44482426	    133.94839122	     -0.38492579	      1.01281317	      0.55707879	     22.86907752	     -0.86925424	     -6.97577371	    -41.95057877	     10.11301558	      0.52148215	      2.34943865	      2.41905462	     -7.82471447	    -15.45953181	     13.26297760	      0.43130686	    -16.30705928	     -2.37899476	     -2.17132811
      2.17000000	     -2.17889368	     -0.35236077	    133.40062325	     -0.38855754	      1.01267970	      0.55278482	     23.07455283	     -0.75940404	     -7.97834586	    -40.00047286	     10.21678878	      0.74808548	      1.75932930	      2.37556537	     -8.33724983	    -15.20738289	     13.53707911	      0.41954954	    -16.38654211	     -2.30552463	     -2.19703134
      2.18000000	     -2.15672124	     -0.27291102	    132.89791309	     -0.39213155	      1.01245201	      0.54849732	     23.26242532	     -0.63959144	     -9.07643657	    -38.01876549	     10.24722422	      1.02220541	      1.21388600	      2.33216064	     -8.80019078	    -14.99044224	     13.80642736	      0.41993324	    -16.45755102	     -2.22370238	     -2.23823269
      2.19000000	     -2.06347545	     -0.23783427	    132.44858934	     -0.39563736	      1.01201344	      0.54422267	     23.50044355	     -0.47778016	    -10.24295549	    -36.01343786	     10.17835619	      1.28965853	      0.79527048	      2.25982203	     -9.22284703	    -14.84102709	     14.13490628	      0.41255071	    -16.44744434	     -2.10650015	     -2.33326714
      2.20000000	     -1.96050744	     -0.21012709	    132.04190589	     -0.39911007	      1.01148592	      0.53993851	     23.71675135	     -0.30091235	    -11.48601654	    -34.00042041	     10.01335879	      1.59698948	      0.40530824	      2.18289972	     -9.60751839	    -14.71854342	     14.46083495	      0.41111089	    -16.43450265	     -1.97850328	     -2.43555084
      2.21000000	     -1.84440373	     -0.20263738	    131.66765064	     -0.40256741	      1.01084609	      0.53561862	     23.93055885	     -0.11029976	    -12.78327743	    -32.00082349	      9.75149067	      1.91579040	      0.05151043	      2.10807028	     -9.96527558	    -14.61845570	     14.79309546	      0.41183056	    -16.40059288	     -1.84535159	     -2.54326136
      2.22000000	     -1.76657294	     -0.16676786	    131.31478352	     -0.40605053	      1.01021099	      0.53122343	     24.06474533	      0.08397688	    -14.12928799	    -30.02896431	      9.44988257	      2.31931946	     -0.37050521	      2.04773148	    -10.28880020	    -14.49370123	     15.13411080	      0.43780027	    -16.42411514	     -1.71569359	     -2.62835596
      2.23000000	     -1.63556528	     -0.20779180	    130.97782770	     -0.40951124	      1.00934727	      0.52676720	     24.28253672	      0.29810665	    -15.44722683	    -28.09985429	      9.02489615	      2.57952096	     -0.66947757	      1.99158409	    -10.62223912	    -14.41779332	     15.48967099	      0.43927681	    -16.34048598	     -1.58857141	     -2.74491061
      2.24000000	     -1.53821360	     -0.23612652	    130.64674082	     -0.41302996	      1.00846690	      0.52218165	     24.44516593	      0.50748318	    -16.77902175	    -26.23642288	      8.58530681	      2.82952610	     -1.02167669	      1.95537278	    -10.95224337	    -14.32144791	     15.84439464	      0.45417214	    -16.28841285	     -1.47492371	     -2.83989034
      2.25000000	     -1.50413823	     -0.21776923	    130.30308974	     -0.41663469	      1.00764544	      0.51742458	     24.50376473	      0.71210111	    -18.10699719	    -24.45529756	      8.19437282	      3.06361602	     -1.48929842	      1.94577529	    -11.28200204	    -14.18684638	     16.19573525	      0.50554088	    -16.31570002	     -1.37456747	     -2.88203656
      2.26000000	     -1.48033065	     -0.22594927	    129.94502380	     -0.42028748	      1.00674267	      0.51251300	     24.56680991	      0.91080393	    -19.35927924	    -22.77675759	      7.78860821	      3.19021548	     -1.94354177	      1.96259560	    -11.65071938	    -14.06859442	     16.52968593	      0.55329683	    -16.31637824	     -1.29786516	     -2.91988793
      2.27000000	     -1.45672424	     -0.25689256	    129.57720518	     -0.42400134	      1.00574763	      0.50744936	     24.63812870	      1.10688537	    -20.51384327	    -21.21708713	      7.41494580	      3.24419325	     -2.37235209	      1.99427832	    -12.04092866	    -13.98391865	     16.86767259	      0.58265231	    -16.28433489	     -1.22849473	     -2.95799130
      2.28000000	     -1.49686381	     -0.21175193	    129.19571547	     -0.42782726	      1.00486238	      0.50217661	     24.58183575	      1.30718705	    -21.58342732	    -19.78544692	      7.15490315	      3.20942761	     -2.93221022	      2.03391073	    -12.43875255	    -13.88189478	     17.20309755	      0.65156177	    -16.35164396	     -1.15324857	     -2.95544121
      2.29000000	     -1.58756704	     -0.13236276	    128.79513884	     -0.43172374	      1.00401606	      0.49672566	     24.45382751	      1.49465254	    -22.49124790	    -18.51129975	      6.99794862	      3.07184644	     -3.56909056	      2.10146987	    -12.83747653	    -13.77485063	     17.50904551	      0.75673747	    -16.47497411	     -1.09445987	     -2.92514398
      2.30000000	     -1.67457078	     -0.04850815	    128.41053283	     -0.43570684	      1.00311166	      0.49115992	     24.31324265	      1.67752409	    -23.22756956	    -17.39976414	      6.91596670	      2.87801912	     -4.17547519	      2.15961713	    -13.23567094	    -13.74653350	     17.82955840	      0.85337152	    -16.58715692	     -1.01544675	     -2.89945427
      2.31000000	     -1.78823477	      0.05996134	    128.04112556	     -0.43978515	      1.00221807	      0.48545637	     24.12172695	      1.84071625	    -23.77206225	    -16.46824130	      6.91048408	      2.60748935	     -4.81120555	      2.22645644	    -13.60061578	    -13.75485768	     18.12717284	      0.97160570	    -16.72520880	     -0.93164007	     -2.87836163
      2.32000000	     -1.89849672	      0.18097549	    127.70456221	     -0.44393575	      1.00128951	      0.47966679	     23.91298702	      1.99130956	    -24.13238519	    -15.72835646	      6.95629271	      2.28885542	     -5.42744221	      2.27685518	    -13.93886377	    -13.82633973	     18.42792295	      1.09412205	    -16.86696889	     -0.82253452	     -2.87859616
      2.33000000	     -2.00610072	      0.30510637	    127.41059050	     -0.44818087	      1.00032045	      0.47378942	     23.69617855	      2.11572680	    -24.31281509	    -15.19574963	      7.02988173	      1.93691162	     -6.01702182	      2.31582627	    -14.23579634	    -13.96277048	     18.72721622	      1.22204090	    -16.99702686	     -0.69151825	     -2.91417347
      2.34000000	     -2.10004124	      0.42491828	    127.16976257	     -0.45251426	      0.99930343	      0.46783924	     23.48367645	      2.21609987	    -24.32490910	    -14.87007532	      7.08878259	      1.57392621	     -6.56036846	      2.33377883	    -14.48019843	    -14.17250933	     19.02889339	      1.35167614	    -17.10231177	     -0.53258346	     -2.99725019
      2.35000000	     -2.18249208	      0.54361815	    126.99204105	     -0.45691807	      0.99827080	      0.46181438	     23.26565460	      2.29292151	    -24.20697735	    -14.73385747	      7.06391756	      1.17132782	     -7.06120795	      2.32540446	    -14.64872714	    -14.45494844	     19.30299012	      1.50894049	    -17.18842418	     -0.34976336	     -3.12093790
      2.36000000	     -2.21757509	      0.65232842	    126.86703181	     -0.46140506	      0.99718252	      0.45570786	     23.08534275	      2.36684493	    -24.00972215	    -14.80434875	      6.93774484	      0.75965377	     -7.49416052	      2.26662555	    -14.76877104	    -14.80056009	     19.57809510	      1.66399709	    -17.21834921	     -0.10957790	     -3.28385406
      2.37000000	     -2.19790887	      0.74881062	    126.79538797	     -0.46595044	      0.99605460	      0.44953010	     22.95092632	      2.44279632	    -23.78891761	    -15.06092806	      6.66134148	      0.36416127	     -7.84972939	      2.15227683	    -14.80529791	    -15.21304312	     19.88002419	      1.80022041	    -17.18833887	      0.18839487	     -3.45499176
      2.38000000	     -2.16599927	      0.86333994	    126.77117731	     -0.47050957	      0.99501201	      0.44325629	     22.80181722	      2.51702050	    -23.58296749	    -15.45772888	      6.23617151	     -0.29819667	     -8.17702464	      1.99188615	    -14.80010467	    -15.69897526	     20.07349915	      2.03655321	    -17.16105071	      0.51694979	     -3.66231427
      2.39000000	     -2.08313341	      0.96841857	    126.75409954	     -0.47509430	      0.99399950	      0.43683733	     22.70280431	      2.60738503	    -23.42608847	    -15.99568482	      5.66267058	     -1.06536906	     -8.46044275	      1.78801531	    -14.76359612	    -16.20028854	     20.27177265	      2.29018145	    -17.07307959	      0.89272654	     -3.86900808
      2.40000000	     -1.94344020	      1.09091733	    126.72851734	     -0.47963848	      0.99309337	      0.43026621	     22.62509566	      2.75013994	    -23.32055485	    -16.61461971	      4.98515028	     -1.93516047	     -8.69439561	      1.51199583	    -14.71502245	    -16.76768290	     20.41328246	      2.56044521	    -16.95640630	      1.32682951	     -4.02426188
      2.41000000	     -1.75617462	      1.23349077	    126.64758336	     -0.48411067	      0.99234506	      0.42350941	     22.56397010	      2.95778017	    -23.21856071	    -17.28964810	      4.28765585	     -2.92169433	     -8.90196219	      1.18440304	    -14.68572092	    -17.37711757	     20.47301193	      2.87434238	    -16.82263931	      1.80844416	     -4.10013245
      2.42000000	     -1.52655234	      1.39816511	    126.47506670	     -0.48845020	      0.99180259	      0.41651093	     22.50900433	      3.24902584	    -23.05628774	    -17.99073448	      3.65558551	     -3.95969528	     -9.09275597	      0.81404470	    -14.70389283	    -18.02796689	     20.42518750	      3.24231768	    -16.68016767	      2.31824845	     -4.07154710
      2.43000000	     -1.25692067	      1.58901829	    126.18509689	     -0.49260664	      0.99148819	      0.40923740	     22.44806868	      3.64048439	    -22.78187635	    -18.69748721	      3.16873440	     -4.93425630	     -9.26620707	      0.40010238	    -14.80120573	    -18.73943914	     20.27434187	      3.65880414	    -16.53926091	      2.84718646	     -3.91915679
      2.44000000	     -0.96271132	      1.80146551	    125.76002508	     -0.49656611	      0.99141763	      0.40169428	     22.36428095	      4.12375593	    -22.37090765	    -19.39177017	      2.85053541	     -5.77548273	     -9.42479358	     -0.03466398	    -14.97300386	    -19.52413149	     20.00617717	      4.13910276	    -16.41344288	      3.37976201	     -3.64344660
